# Blender 4.5.3 LTS
# www.blender.org
mtllib CubDinCribite.mtl
o Cube
v 0.900000 1.000000 -0.900000
v 0.900000 -1.000000 -0.900000
v 0.900000 1.000000 0.900000
v 0.900000 -1.000000 0.900000
v -0.900000 1.000000 -0.900000
v -0.900000 -1.000000 -0.900000
v -0.900000 1.000000 0.900000
v -0.900000 -1.000000 0.900000
v 0.900000 0.900000 -1.000000
v 0.900000 -0.900000 -1.000000
v 1.000000 1.000000 1.000000
v 1.000000 -1.000000 1.000000
v -0.900000 0.900000 -1.000000
v -0.900000 -0.900000 -1.000000
v -1.000000 1.000000 1.000000
v -1.000000 -1.000000 1.000000
v 1.000000 1.000000 -1.000000
v 1.000000 -1.000000 -1.000000
v 1.000000 1.000000 1.000000
v 1.000000 -1.000000 1.000000
v 1.000000 1.000000 -1.000000
v 1.000000 -1.000000 -1.000000
v 1.000000 1.000000 1.000000
v 1.000000 -1.000000 1.000000
v 1.000000 0.900000 -0.900000
v 1.000000 -0.900000 -0.900000
v 1.000000 0.900000 0.900000
v 1.000000 -0.900000 0.900000
v 1.000000 1.000000 -1.000000
v 1.000000 -1.000000 -1.000000
v 1.000000 1.000000 1.000000
v 1.000000 -1.000000 1.000000
v 0.900000 0.900000 1.000000
v -1.000000 0.900000 0.900000
v 1.000000 1.000000 -1.000000
v -1.000000 0.900000 -0.900000
v -1.000000 -0.900000 -0.900000
v -1.000000 -0.900000 0.900000
v 1.000000 -1.000000 -1.000000
v 0.900000 -0.900000 1.000000
v 1.000000 -1.000000 -1.000000
v -1.000000 -1.000000 -1.000000
v 1.000000 1.000000 -1.000000
v -1.000000 1.000000 -1.000000
v -1.000000 -1.000000 -1.000000
v -0.900000 -0.900000 1.000000
v -0.900000 0.900000 1.000000
v -1.000000 1.000000 -1.000000
v -1.000000 -1.000000 1.000000
v -1.000000 1.000000 1.000000
v 1.000000 1.000000 1.000000
v 1.000000 -1.000000 1.000000
v 0.900000 0.900000 -0.900000
v 0.900000 0.900000 0.900000
v -0.900000 0.900000 -0.900000
v -0.900000 0.900000 0.900000
v 0.900000 -0.900000 -0.900000
v 0.900000 -0.900000 0.900000
v -0.900000 -0.900000 -0.900000
v -0.900000 -0.900000 0.900000
vn -0.0000 1.0000 -0.0000
vn 1.0000 -0.0000 -0.0000
vn -0.0000 -1.0000 -0.0000
vn -0.0000 -0.0000 -1.0000
vn -0.0000 -0.0000 1.0000
vn -1.0000 -0.0000 -0.0000
vt 0.625000 0.500000
vt 0.625000 0.750000
vt 0.375000 0.750000
vt 0.000000 0.000000
vt 0.375000 0.500000
vt 0.612500 0.512500
vt 0.387500 0.512500
vt 0.387500 0.737500
vt 0.612500 0.737500
vt 0.862500 0.737500
vt 0.637500 0.737500
vt 0.875000 0.750000
vt 0.637500 0.512500
vt 0.862500 0.512500
vt 0.875000 0.500000
vt 0.137500 0.737500
vt 0.137500 0.512500
vt 0.125000 0.500000
vt 0.125000 0.750000
vt 0.362500 0.512500
vt 0.362500 0.737500
vt 0.387500 0.262500
vt 0.387500 0.487500
vt 0.375000 0.250000
vt 0.612500 0.487500
vt 0.612500 0.262500
vt 0.625000 0.250000
vt 0.387500 0.237500
vt 0.387500 0.012500
vt 0.375000 0.000000
vt 0.612500 0.012500
vt 0.625000 0.000000
vt 0.612500 0.237500
vt 0.612500 0.987500
vt 0.387500 0.987500
vt 0.375000 1.000000
vt 0.625000 1.000000
vt 0.387500 0.762500
vt 0.612500 0.762500
s 0
usemtl Material
f 43/1/1 11/2/1 19/2/1 17/1/1
f 17/1/1 19/2/1 23/2/1 21/1/1
f 11/2/1 12/3/1 20/3/1 19/2/1
f 41/4/1 43/4/1 17/4/1 18/4/1
f 12/3/1 41/5/1 18/5/1 20/3/1
f 22/4/1 21/4/1 29/4/1 30/4/1
f 18/5/1 17/1/1 21/1/1 22/5/1
f 20/3/1 18/5/1 22/5/1 24/3/1
f 19/2/1 20/3/1 24/3/1 23/2/1
f 24/3/1 22/5/1 30/5/1 32/3/1
f 23/4/1 24/4/1 32/4/1 31/4/1
f 21/1/1 23/2/1 31/2/1 29/1/1
f 25/6/2 26/7/2 30/5/2 29/1/2
f 28/8/2 27/9/2 31/2/2 32/3/2
f 27/9/2 25/6/2 29/1/2 31/2/2
f 26/7/2 28/8/2 32/3/2 30/5/2
f 7/10/3 3/11/3 51/2/3 50/12/3
f 3/11/3 1/13/3 35/1/3 51/2/3
f 5/14/3 7/10/3 50/12/3 48/15/3
f 1/13/3 5/14/3 48/15/3 35/1/3
f 8/16/1 6/17/1 45/18/1 49/19/1
f 6/17/1 2/20/1 39/5/1 45/18/1
f 4/21/1 8/16/1 49/19/1 52/3/1
f 2/20/1 4/21/1 52/3/1 39/5/1
f 14/22/4 10/23/4 41/5/4 42/24/4
f 10/23/4 9/25/4 43/1/4 41/5/4
f 13/26/4 14/22/4 42/24/4 44/27/4
f 9/25/4 13/26/4 44/27/4 43/1/4
f 37/28/2 38/29/2 49/30/2 45/24/2
f 38/29/2 34/31/2 50/32/2 49/30/2
f 36/33/2 37/28/2 45/24/2 48/27/2
f 34/31/2 36/33/2 48/27/2 50/32/2
f 47/34/4 46/35/4 49/36/4 50/37/4
f 40/38/4 33/39/4 51/2/4 52/3/4
f 33/39/4 47/34/4 50/37/4 51/2/4
f 46/35/4 40/38/4 52/3/4 49/36/4
f 60/4/5 8/16/5 4/21/5 58/4/5
f 60/4/6 59/4/6 6/17/6 8/16/6
f 56/4/5 34/31/5 38/29/5 60/4/5
f 47/34/6 56/4/6 60/4/6 46/35/6
f 46/35/3 60/4/3 58/4/3 40/38/3
f 38/29/3 37/28/3 59/4/3 60/4/3
f 57/4/1 10/23/1 14/22/1 59/4/1
f 2/20/4 6/17/4 59/4/4 57/4/4
f 4/21/2 2/20/2 57/4/2 58/4/2
f 28/8/1 26/7/1 57/4/1 58/4/1
f 28/8/4 58/4/4 54/4/4 27/9/4
f 40/38/2 58/4/2 54/4/2 33/39/2
f 55/4/4 5/14/4 1/13/4 53/4/4
f 13/26/3 9/25/3 53/4/3 55/4/3
f 7/10/6 5/14/6 55/4/6 56/4/6
f 34/31/1 56/4/1 55/4/1 36/33/1
f 13/26/2 55/4/2 59/4/2 14/22/2
f 36/33/4 55/4/4 59/4/4 37/28/4
f 9/25/6 10/23/6 57/4/6 53/4/6
f 25/6/5 53/4/5 57/4/5 26/7/5
f 3/11/2 54/4/2 53/4/2 1/13/2
f 27/9/3 54/4/3 53/4/3 25/6/3
f 7/10/5 56/4/5 54/4/5 3/11/5
f 47/34/1 33/39/1 54/4/1 56/4/1
l 35 39
l 42 16
l 16 15
l 11 15
l 16 12
l 15 44
